<svg id="e1vCH6ip9LU1" xmlns="http://www.w3.org/2000/svg" xmlns:xlink="http://www.w3.org/1999/xlink" viewBox="0 0 300 300" shape-rendering="geometricPrecision" text-rendering="geometricPrecision"><ellipse rx="27.331505" ry="28.213167" transform="translate(148.155531 110.501568)" fill="#8da0ac" stroke-width="0"/><path d="" fill="none" stroke="#3f5787" stroke-width="0.6"/><path d="M139.002909,137.404491c-14.13333,18.84444-50.709849,5.350029-63.496399-7.436511-7.08203-7.08203-8.729271-18.5498-15.188631-25.93193-2.31252-2.64288-10.250799-.20412-11.697229,3.05035-15.01032,33.77324,52.90702,57.776,76.65331,57.776" transform="translate(.000001 0)" fill="#a4c1d5" stroke="#3f5787" stroke-width="0.6"/><path d="M183.62199,193.46437c9.78782,24.46956,47.07751,18.96244,66.35659,28.60198c2.43838,1.21919,3.622564,1.488366,3.43224,4.57632-1.209723,19.62739-49.275847,1.65108-60.6362-1.71612-.701635-.207964-15.629264-11.36346-16.618664-10.86876-1.27209.63605,11.035926,15.289219,11.725188,16.214683c4.893476,6.570417,39.530274,28.560306,22.054656,42.133357-15.750902,12.23349-44.657365-50.487066-61.78027-70.93291" transform="translate(.000001 0.000001)" fill="#b2c4d1" stroke="#3f5787" stroke-width="0.6"/><ellipse rx="26.432303" ry="25.059197" transform="translate(56.469244 57.229204)" fill="#ede9d2" stroke-width="0"/><polygon points="0,-30 5.466403,-7.523858 28.531695,-9.27051 8.844826,2.873858 17.633558,24.27051 0,9.3 -17.633558,24.27051 -8.844826,2.873858 -28.531695,-9.27051 -5.466403,-7.523858 0,-30" transform="matrix(.409064 0 0 0.375225 169.336357 35.330886)" fill="#99a4ba" stroke-width="0"/><polygon points="0,-30 5.466403,-7.523858 28.531695,-9.27051 8.844826,2.873858 17.633558,24.27051 0,9.3 -17.633558,24.27051 -8.844826,2.873858 -28.531695,-9.27051 -5.466403,-7.523858 0,-30" transform="matrix(.409064 0 0 0.375225 265.123515 45.512712)" fill="#99a4ba" stroke-width="0"/><polygon points="0,-30 5.466403,-7.523858 28.531695,-9.27051 8.844826,2.873858 17.633558,24.27051 0,9.3 -17.633558,24.27051 -8.844826,2.873858 -28.531695,-9.27051 -5.466403,-7.523858 0,-30" transform="matrix(.409064 0 0 0.375225 237.406193 111.576492)" fill="#99a4ba" stroke-width="0"/><polygon points="0,-30 5.466403,-7.523858 28.531695,-9.27051 8.844826,2.873858 17.633558,24.27051 0,9.3 -17.633558,24.27051 -8.844826,2.873858 -28.531695,-9.27051 -5.466403,-7.523858 0,-30" transform="matrix(.409064 0 0 0.375225 30.036941 184.357469)" fill="#99a4ba" stroke-width="0"/><path d="M156.816027,137.404491c-5.05277,0-10.006956.51248-15.131756,0-.49097-.0491-.978876-.865538-1.188036-.781868-3.54578,1.41831-7.069623,9.908217-8.457283,13.377377-1.78375,4.45938-5.962062,10.67599-6.912772,14.95417-.53898,2.4254,13.44114,19.43092,15.89937,20.56548c13.36755,6.16964,36.686607,4.699289,35.130407-12.41893-.72664-7.993061-13.188805-31.418727-18.248185-36.478097" transform="translate(-.242704 0.695929)" fill="#a4c1d5" stroke-width="0.6"/><path d="M157.88021,137.40449c3.585535,5.957826,7.838047,6.43942,17.796097,10.732081c15.703296,6.76929,24.36502,20.550441,17.098316,39.71049-5.57154,13.92885-75.933793,22.888689-80.085533,9.049549-8.16221-27.20735,75.923457,7.111029,60.265367-32.034211" transform="translate(0 0.000001)" fill="#a4c1d5" stroke="#3f5787" stroke-width="0.6"/><path d="M124.45584,165.23542c1.864452,5.099046,5.41738,7.807642,8.006236,11.05453c2.293151,2.876021,7.873503,8.054828,7.844614,9.00451" fill="none" stroke="#3f5787" stroke-width="0.6"/><ellipse rx="22.22644" ry="22.60415" transform="matrix(1.048057 0 0 1.067818 139.00291 102.925705)" fill="#a6f1ea" stroke-width="0"/><path d="M83.07053,272.57031c5.73019,4.29765,11.74408,9.95048,19.42713,9.95048c1.57944,0,4.73832,1.57944,4.73832,0c0-.37121-3.77183-2.76258-4.26449-3.31683-3.6361-4.09062-6.74763-10.57628-10.1874-15.16264" transform="translate(-.789081-1.176757)" fill="#e11717" stroke="#3f5787" stroke-width="0.6"/><path d="M85.43969,269.96423c10.43406,7.82555,12.04,8.61573,4.73832-3.55374" transform="translate(-.76367-1.577544)" fill="#f9fb17" stroke="#3f5787" stroke-width="0.6"/><path d="M89.70418,249.82636c3.40392.68079,25.52626,7.95984,23.4547,12.79347-1.92311,4.48725-17.26373-.60975-20.13788-1.18458" transform="translate(0 0.000001)" fill="#5196e8" stroke="#3f5787" stroke-width="0.6"/><path d="M67.275346,264.017012c0,5.32249-.567356,23.545488,6.318544,25.611268c3.90542,1.17163,4.99626-14.637389,7.58132-17.222449" fill="#5196e8" stroke="#3f5787" stroke-width="0.6"/><path d="M92.80726,259.1412c0-7.52696-6.151785-22.272457-17.300749-28.868726-4.707844-2.785387-17.032104-8.40604-20.361362-6.979214-1.215499.520927-.957588,13.549631-.848892,13.549631.862522,0,0-.515338,0,0-.108696,17.178342,17.291155,35.392089,29.037086,35.595678c0,0,4.873368-6.468109,9.050885-8.421557c1.312703-.613833.423032-3.043451.423032-4.875812" fill="#5bdf68" stroke="#3f5787" stroke-width="0.6"/><path d="M53.59956,237.29017c6.50242,0,14.15621-1.90991,15.64006-9.32916" fill="none" stroke="#3f5787" stroke-width="0.6"/><ellipse rx="6.991986" ry="5.245708" transform="matrix(.707039 0 0 1.000001 70.357476 244.580653)" fill="#324773" stroke-width="0"/><path d="M81.538945,263.139369c1.59822,1.59822,9.242078,13.395832,11.209018,12.904102c2.36848-.592121-7.017688-13.408497-7.882398-14.705567-1.39141-2.08712-5.957483-7.950679-8.191765-9.142384-3.668767-1.95682,3.352293,8.786497,4.865145,10.943849" transform="translate(-.363735 1.124334)" fill="#5196e8" stroke="#3f5787" stroke-width="0.6"/></svg>
