<svg id="eXYJLhC0dA61" xmlns="http://www.w3.org/2000/svg" xmlns:xlink="http://www.w3.org/1999/xlink" viewBox="0 0 300 300" shape-rendering="geometricPrecision" text-rendering="geometricPrecision"><path d="M124.38925,138.25684c-7.20975,36.04874,48.26392,19.41235,33.70467,0" transform="translate(4.407491-35.096537)" fill="none" stroke="#3f5787" stroke-width="0.6"/><path d="M124.38925,137.846283c-6.1687,15.42176-8.324381,65.190427-2.772671,81.845557c6.3376,19.01279,43.321231,26.22302,46.863931-9.20395c1.45137-14.5137-6.932261-58.201267-9.820331-72.641607" transform="translate(4.407491-35.096537)" fill="#9ab1c8" stroke="#3f5787" stroke-width="0.6"/><path d="M121.616579,219.747832c0,11.92866-19.567939,71.616208-11.541989,76.075068c28.57936,15.87742,23.38774-44.33816,27.20276-51.20519.73266-1.31879,1.70333-3.38745,3.20032-3.20032c8.94359,1.11795,16.44634,58.90952,32.80333,48.00487c13.40893-8.93929.952125-65.155946-4.384265-78.496926" transform="matrix(.983571 0 0 1.207001 6.76607-78.666274)" fill="#abbbc3" stroke="#3f5787" stroke-width="0.6"/><path d="M163.06767,115.13777c13.48299,5.77842,38.34855,20.72899,39.67289,36.62113.68082,8.16989-14.33775,42.45969-25.02444,38.45218-2.72541-1.02203-1.51294-4.35391-1.83106-6.10352-2.11114-11.61128,6.8754-21.6377,3.66211-32.34866-1.04608-3.48694-6.35148-6.84103-8.54493-9.76564" transform="translate(0 0.000001)" fill="#a0b6c5" stroke="#3f5787" stroke-width="0.6"/><ellipse rx="36.228519" ry="34.835114" transform="translate(145.698712 71.498911)" fill="#9ea8bc" stroke-width="0"/><ellipse rx="34.782812" ry="25.791973" transform="translate(144.253005 68.139552)" fill="#cef3eb" stroke-width="0"/><polygon points="0,-30 5.466403,-7.523858 28.531695,-9.27051 8.844826,2.873858 17.633558,24.27051 0,9.3 -17.633558,24.27051 -8.844826,2.873858 -28.531695,-9.27051 -5.466403,-7.523858 0,-30" transform="matrix(.469798 0 0 0.455375 67.186663 31.376394)" fill="#abbad5" stroke-width="0"/><polygon points="0,-30 5.466403,-7.523858 28.531695,-9.27051 8.844826,2.873858 17.633558,24.27051 0,9.3 -17.633558,24.27051 -8.844826,2.873858 -28.531695,-9.27051 -5.466403,-7.523858 0,-30" transform="matrix(.469798 0 0 0.455375 222.488098 101.485041)" fill="#abbad5" stroke-width="0"/><polygon points="0,-30 5.466403,-7.523858 28.531695,-9.27051 8.844826,2.873858 17.633558,24.27051 0,9.3 -17.633558,24.27051 -8.844826,2.873858 -28.531695,-9.27051 -5.466403,-7.523858 0,-30" transform="matrix(.469798 0 0 0.455375 29.68471 109.381874)" fill="#abbad5" stroke-width="0"/><polygon points="0,-30 5.466403,-7.523858 28.531695,-9.27051 8.844826,2.873858 17.633558,24.27051 0,9.3 -17.633558,24.27051 -8.844826,2.873858 -28.531695,-9.27051 -5.466403,-7.523858 0,-30" transform="matrix(.469798 0 0 0.455375 78.808731 157.700584)" fill="#abbad5" stroke-width="0"/><polygon points="0,-30 5.466403,-7.523858 28.531695,-9.27051 8.844826,2.873858 17.633558,24.27051 0,9.3 -17.633558,24.27051 -8.844826,2.873858 -28.531695,-9.27051 -5.466403,-7.523858 0,-30" transform="matrix(.469798 0 0 0.455375 261.328349 159.655206)" fill="#abbad5" stroke-width="0"/><ellipse rx="41.000768" ry="40.702883" transform="matrix(.611371 0 0 0.584638 243.750036 47.702465)" fill="#ddddd8" stroke-width="0"/><path d="M130.184831,116.763872C121.808491,115.088602,88.56553,69.4686,80.67352,57.63058c-2.16721-3.25081-11.333983-5.189382-15.226023-.000002-24.73648,32.98197,31.129529,66.6921,59.161899,77.90505" transform="matrix(.637821 0 0 1.080109 43.349992-5.947154)" fill="#9cb2bc" stroke="#3f5787" stroke-width="0.6"/></svg>
